<?xml version="1.0" encoding="UTF-8" standalone="no"?>
<!DOCTYPE svg PUBLIC "-//W3C//DTD SVG 1.1//EN" "http://www.w3.org/Graphics/SVG/1.1/DTD/svg11.dtd">
<svg width="100%" height="100%" viewBox="0 0 228 228" version="1.1" xmlns="http://www.w3.org/2000/svg" xmlns:xlink="http://www.w3.org/1999/xlink" xml:space="preserve" xmlns:serif="http://www.serif.com/" style="fill-rule:evenodd;clip-rule:evenodd;stroke-linejoin:round;stroke-miterlimit:2;">
    <g transform="matrix(4.16667,0,0,4.16667,-340.913,-1988.54)">
        <path d="M109.066,531.742C94.042,531.742 81.819,519.519 81.819,504.495C81.819,489.472 94.042,477.249 109.066,477.249C124.09,477.249 136.313,489.472 136.313,504.495C136.313,519.519 124.09,531.742 109.066,531.742Z" style="fill:rgb(0,130,192);fill-rule:nonzero;"/>
    </g>
    <g transform="matrix(4.16667,0,0,4.16667,-340.913,-1988.54)">
        <path d="M96.546,517.199L101.797,517.199C102.048,517.199 102.252,516.995 102.252,516.743L102.252,499.119C102.252,498.868 102.048,498.664 101.797,498.664L96.546,498.664C96.295,498.664 96.091,498.868 96.091,499.119L96.091,516.743C96.091,516.995 96.295,517.199 96.546,517.199ZM124.47,506.57L124.47,516.743C124.47,516.995 124.266,517.199 124.015,517.199L118.763,517.199C118.511,517.199 118.308,516.995 118.308,516.743L118.308,507.283C118.308,504.792 117.418,503.092 115.187,503.092C113.483,503.092 112.473,504.237 112.025,505.345C111.863,505.742 111.821,506.291 111.821,506.847L111.821,516.742C111.821,516.995 111.618,517.198 111.366,517.198L106.116,517.198C105.864,517.198 105.66,516.995 105.661,516.742C105.673,514.224 105.726,501.998 105.672,499.125C105.667,498.87 105.872,498.664 106.127,498.664L111.367,498.664C111.618,498.664 111.822,498.868 111.822,499.119L111.822,501.29C111.81,501.312 111.792,501.331 111.781,501.352L111.822,501.352L111.822,501.29C112.641,500.031 114.102,498.229 117.376,498.229C121.43,498.229 124.47,500.878 124.47,506.57Z" style="fill:white;fill-rule:nonzero;"/>
    </g>
    <g transform="matrix(4.16667,0,0,4.16667,-340.913,-1988.54)">
        <path d="M102.285,493.008C102.285,494.83 100.809,496.307 98.987,496.307C97.165,496.307 95.688,494.83 95.688,493.008C95.688,491.187 97.165,489.71 98.987,489.71C100.809,489.71 102.285,491.187 102.285,493.008Z" style="fill:white;fill-rule:nonzero;"/>
    </g>
</svg>
