<?xml version="1.0" encoding="UTF-8" standalone="no"?>
<!DOCTYPE svg PUBLIC "-//W3C//DTD SVG 1.1//EN" "http://www.w3.org/Graphics/SVG/1.1/DTD/svg11.dtd">
<svg width="100%" height="100%" viewBox="0 0 226 226" version="1.1" xmlns="http://www.w3.org/2000/svg" xmlns:xlink="http://www.w3.org/1999/xlink" xml:space="preserve" xmlns:serif="http://www.serif.com/" style="fill-rule:evenodd;clip-rule:evenodd;stroke-linejoin:round;stroke-miterlimit:2;">
    <g transform="matrix(4.16667,0,0,4.16667,-682.737,-1719.94)">
        <path d="M214.7,439.67C214.7,452.787 204.066,463.42 190.95,463.42C177.833,463.42 167.2,452.787 167.2,439.67C167.2,426.554 177.833,415.92 190.95,415.92C204.066,415.92 214.7,426.554 214.7,439.67Z" style="fill:white;fill-rule:nonzero;"/>
    </g>
    <g transform="matrix(4.16667,0,0,4.16667,-682.737,-1719.94)">
        <path d="M204.981,446.465C204.981,450.364 201.818,453.525 197.919,453.525L184.352,453.525C180.452,453.525 177.291,450.364 177.291,446.465L177.291,432.896C177.291,428.996 180.452,425.835 184.352,425.835L197.919,425.835C201.818,425.835 204.981,428.996 204.981,432.896L204.981,446.465ZM208.199,432.896C208.199,427.218 203.597,422.617 197.919,422.617L184.352,422.617C178.674,422.617 174.071,427.218 174.071,432.896L174.071,446.465C174.071,452.142 178.674,456.744 184.352,456.744L197.919,456.744C203.597,456.744 208.199,452.142 208.199,446.465L208.199,432.896ZM191.193,445.299C188.217,445.299 185.794,442.877 185.794,439.901C185.794,436.923 188.217,434.501 191.193,434.501C194.17,434.501 196.592,436.923 196.592,439.901C196.592,442.877 194.17,445.299 191.193,445.299ZM191.193,431.472C186.546,431.472 182.765,435.253 182.765,439.901C182.765,444.548 186.546,448.328 191.193,448.328C195.841,448.328 199.621,444.548 199.621,439.901C199.621,435.253 195.841,431.472 191.193,431.472ZM200.113,428.9C199.005,428.9 198.107,429.798 198.107,430.906C198.107,432.014 199.005,432.912 200.113,432.912C201.222,432.912 202.12,432.014 202.12,430.906C202.12,429.798 201.222,428.9 200.113,428.9ZM190.971,467.015C176.02,467.015 163.857,454.851 163.857,439.901C163.857,424.95 176.02,412.786 190.971,412.786C205.921,412.786 218.085,424.95 218.085,439.901C218.085,454.851 205.921,467.015 190.971,467.015Z" style="fill:url(#_Linear1);"/>
    </g>
    <defs>
        <linearGradient id="_Linear1" x1="0" y1="0" x2="1" y2="0" gradientUnits="userSpaceOnUse" gradientTransform="matrix(67.2706,-57.2801,57.2801,67.2706,169.062,458.555)"><stop offset="0" style="stop-color:rgb(255,221,134);stop-opacity:1"/><stop offset="0.2" style="stop-color:rgb(252,182,80);stop-opacity:1"/><stop offset="0.3" style="stop-color:rgb(244,128,103);stop-opacity:1"/><stop offset="0.4" style="stop-color:rgb(240,89,130);stop-opacity:1"/><stop offset="0.5" style="stop-color:rgb(238,75,154);stop-opacity:1"/><stop offset="0.7" style="stop-color:rgb(134,80,160);stop-opacity:1"/><stop offset="0.8" style="stop-color:rgb(107,81,162);stop-opacity:1"/><stop offset="1" style="stop-color:rgb(75,91,169);stop-opacity:1"/></linearGradient>
    </defs>
</svg>
