<?xml version="1.0" encoding="UTF-8" standalone="no"?>
<!DOCTYPE svg PUBLIC "-//W3C//DTD SVG 1.1//EN" "http://www.w3.org/Graphics/SVG/1.1/DTD/svg11.dtd">
<svg width="100%" height="100%" viewBox="0 0 2061 2061" version="1.1" xmlns="http://www.w3.org/2000/svg" xmlns:xlink="http://www.w3.org/1999/xlink" xml:space="preserve" xmlns:serif="http://www.serif.com/" style="fill-rule:evenodd;clip-rule:evenodd;stroke-linejoin:round;stroke-miterlimit:2;">
    <g transform="matrix(4.16667,0,0,4.16667,-3081.84,-3032.27)">
        <path d="M1234.26,975.055C1234.26,1111.64 1123.54,1222.37 986.953,1222.37C850.367,1222.37 739.642,1111.64 739.642,975.055C739.642,838.469 850.367,727.744 986.953,727.744C1123.54,727.744 1234.26,838.469 1234.26,975.055Z" style="fill:rgb(114,59,151);fill-rule:nonzero;"/>
    </g>
    <g transform="matrix(4.16667,0,0,4.16667,-5617.75,-3031.94)">
        <path d="M1540.52,825.996C1548.79,829.138 1552.09,836.087 1553.89,843.942C1557.47,859.592 1560.85,875.286 1564.22,890.984C1564.73,893.356 1564.87,895.84 1564.91,898.276C1565.02,905.79 1561.5,910.885 1554.4,913.435C1549.45,915.215 1544.46,916.915 1539.43,918.44C1534.55,919.918 1531.85,923.287 1530.69,927.991C1529.15,934.291 1529.34,940.518 1531.47,946.754C1543.54,982.132 1564.46,1011.45 1592.65,1035.67C1598.38,1040.59 1604.87,1044.74 1611.39,1048.61C1615.53,1051.08 1620.51,1051.59 1625.41,1051.09C1628.91,1050.74 1631.78,1049.19 1633.83,1046.19C1636.59,1042.14 1639.46,1038.17 1642.25,1034.14C1647.9,1025.98 1654.48,1023.84 1663.71,1027.78C1668.7,1029.9 1673.42,1032.67 1678.2,1035.27C1687.2,1040.17 1696.17,1045.14 1705.13,1050.12C1707.42,1051.4 1709.67,1052.77 1711.86,1054.22C1717.88,1058.21 1722.71,1063.06 1723.34,1070.8C1723.05,1072.78 1722.76,1074.75 1722.48,1076.73C1720.5,1081.26 1718.86,1085.98 1716.48,1090.29C1705.9,1109.42 1689.9,1121.06 1668.1,1124.19C1663.75,1124.81 1659.28,1124.63 1654.87,1124.82C1651.45,1124.32 1648.03,1123.83 1644.61,1123.33C1640.55,1122.07 1636.43,1120.96 1632.43,1119.52C1612.36,1112.28 1595.4,1100.07 1579.62,1086.07C1560.71,1069.29 1544.32,1050.22 1529.12,1030.1C1510.49,1005.46 1493.61,979.742 1481.4,951.228C1474.61,935.381 1469.48,919.054 1468.18,901.746C1467.8,896.705 1467.91,891.628 1467.8,886.567C1468.29,883.147 1468.79,879.728 1469.28,876.308C1469.57,875.554 1469.92,874.817 1470.13,874.042C1476.87,849.029 1493.31,833.857 1518,827.375C1523.35,825.968 1529.04,825.848 1534.58,825.135C1536.56,825.422 1538.54,825.709 1540.52,825.996Z" style="fill:white;fill-rule:nonzero;"/>
    </g>
</svg>
