<?xml version="1.0" encoding="UTF-8" standalone="no"?>
<!DOCTYPE svg PUBLIC "-//W3C//DTD SVG 1.1//EN" "http://www.w3.org/Graphics/SVG/1.1/DTD/svg11.dtd">
<svg width="100%" height="100%" viewBox="0 0 228 228" version="1.1" xmlns="http://www.w3.org/2000/svg" xmlns:xlink="http://www.w3.org/1999/xlink" xml:space="preserve" xmlns:serif="http://www.serif.com/" style="fill-rule:evenodd;clip-rule:evenodd;stroke-linejoin:round;stroke-miterlimit:2;">
    <g transform="matrix(4.16667,0,0,4.16667,-0.983333,-1717.09)">
        <path d="M27.529,466.688C12.48,466.688 0.236,454.444 0.236,439.395C0.236,424.346 12.48,412.102 27.529,412.102C42.578,412.102 54.822,424.346 54.822,439.395C54.822,454.444 42.578,466.688 27.529,466.688Z" style="fill:rgb(0,185,230);fill-rule:nonzero;"/>
    </g>
    <g transform="matrix(4.16667,0,0,4.16667,-0.983333,-1717.09)">
        <path d="M43.215,429.435C42.205,429.892 41.092,430.169 40.002,430.353C40.519,430.266 41.283,429.328 41.588,428.95C42.053,428.37 42.44,427.712 42.658,427C42.685,426.945 42.707,426.875 42.651,426.833C42.582,426.805 42.536,426.82 42.481,426.847C41.263,427.499 40.004,427.973 38.664,428.308C38.552,428.335 38.47,428.308 38.401,428.239C38.29,428.113 38.185,427.994 38.067,427.897C37.504,427.417 36.899,427.041 36.218,426.764C35.323,426.4 34.345,426.244 33.382,426.307C32.445,426.368 31.524,426.632 30.692,427.068C29.858,427.503 29.114,428.109 28.521,428.84C27.909,429.596 27.457,430.49 27.225,431.436C27.002,432.35 27.02,433.253 27.156,434.177C27.177,434.33 27.164,434.351 27.025,434.33C21.782,433.55 17.436,431.674 13.909,427.655C13.755,427.48 13.672,427.48 13.546,427.667C12.004,429.982 12.753,433.7 14.68,435.526C14.938,435.77 15.202,436.013 15.487,436.236C15.382,436.256 14.099,436.117 12.956,435.526C12.802,435.429 12.726,435.485 12.713,435.659C12.698,435.909 12.719,436.138 12.754,436.409C13.05,438.755 14.674,440.925 16.899,441.772C17.163,441.882 17.455,441.98 17.74,442.029C17.233,442.14 16.711,442.219 15.257,442.105C15.077,442.071 15.007,442.16 15.077,442.334C16.169,445.312 18.527,446.198 20.293,446.702C20.529,446.743 20.765,446.743 21.003,446.799C20.988,446.821 20.973,446.821 20.961,446.841C20.375,447.734 18.344,448.399 17.398,448.729C15.678,449.329 13.806,449.6 11.989,449.421C11.698,449.378 11.636,449.381 11.558,449.421C11.478,449.47 11.547,449.539 11.641,449.616C12.01,449.859 12.385,450.075 12.768,450.284C13.922,450.895 15.126,451.382 16.384,451.73C22.882,453.525 30.203,452.205 35.082,447.358C38.914,443.55 40.256,438.3 40.256,433.043C40.256,432.837 40.5,432.724 40.644,432.616C41.641,431.867 42.433,430.97 43.177,429.969C43.344,429.744 43.335,429.544 43.335,429.462L43.335,429.435C43.335,429.351 43.344,429.375 43.215,429.435Z" style="fill:white;fill-rule:nonzero;"/>
    </g>
    <g transform="matrix(4.16667,0,0,4.16667,-0.983333,-1717.09)">
        <path d="M20.97,452.383C23.666,452.383 21.099,452.383 20.97,452.383C21.325,452.383 20.956,452.383 20.97,452.383Z" style="fill:white;"/>
    </g>
    <g transform="matrix(4.16667,0,0,4.16667,-0.983333,-1717.09)">
        <path d="M20.97,452.383C20.928,452.387 20.445,452.383 20.97,452.383C20.97,452.383 20.886,452.383 20.97,452.383Z" style="fill:white;"/>
    </g>
    <g transform="matrix(4.16667,0,0,4.16667,-0.983333,-1717.09)">
        <path d="M22.042,452.411C22.042,452.358 22.605,452.411 22.042,452.411C22.042,452.383 22.111,452.411 22.042,452.411Z" style="fill:white;"/>
    </g>
    <g transform="matrix(4.16667,0,0,4.16667,-0.983333,-1717.09)">
        <path d="M33.293,426.332C33.258,426.361 33.21,426.361 33.162,426.332L33.293,426.332Z" style="fill:white;"/>
    </g>
</svg>
